<svg id="Layer_1" data-name="Layer 1" xmlns="http://www.w3.org/2000/svg" viewBox="0 0 617.54 601.5"><defs><style>.cls-1{fill:#fff;}.cls-2{fill:#3b73b9;}</style></defs><path class="cls-1" d="M808,496.38h0a4.77,4.77,0,0,0-6.59-1.47l-76.79,48.82-40.86-179,90.26,10a4.77,4.77,0,0,0,5.27-4.2h0a4.76,4.76,0,0,0-4.21-5.28l-92.24-10.25,10-93.48a4.77,4.77,0,0,0-4.23-5.25h0a4.77,4.77,0,0,0-5.26,4.23L673.61,352,508.22,272.37l64.9-65a4.76,4.76,0,0,0,0-6.75h0a4.77,4.77,0,0,0-6.74,0L500.08,267l-66.36-66.29a4.77,4.77,0,0,0-6.74,0l0,0a4.78,4.78,0,0,0,0,6.75l64.94,64.91L326.48,352l-10.39-91.19a4.78,4.78,0,0,0-5.28-4.2h0a4.77,4.77,0,0,0-4.2,5.28l10.58,93.17L224.94,365.6a4.77,4.77,0,0,0-4.2,5.28h0a4.76,4.76,0,0,0,5.28,4.2l90.29-10.31-40.87,179-76.88-48.45a4.77,4.77,0,0,0-6.59,1.5v0a4.76,4.76,0,0,0,1.5,6.57L272,552.89,223,630a4.77,4.77,0,0,0,1.46,6.59h0a4.76,4.76,0,0,0,6.58-1.46l48-75.5L393.61,703.25l-84.28,30.09a4.77,4.77,0,0,0-2.89,6.09v0a4.77,4.77,0,0,0,6.1,2.89l86-30.74,29.9,85.91a4.76,4.76,0,0,0,6.07,2.94h0a4.77,4.77,0,0,0,2.94-6.07l-29.25-84.08H591.79l-30.08,84a4.77,4.77,0,0,0,2.89,6.1h0a4.75,4.75,0,0,0,6.09-2.88l30.78-86,86.22,30.6a4.77,4.77,0,0,0,6.09-2.9l0,0a4.79,4.79,0,0,0-2.9-6.1l-84.39-29.94L721.05,559.66l47.59,76a4.78,4.78,0,0,0,6.57,1.52h0a4.78,4.78,0,0,0,1.53-6.59l-48.66-77.72L806.56,503A4.77,4.77,0,0,0,808,496.38Zm-303.21-215,163.51,78.71L577.46,425.4,529.57,440a5.26,5.26,0,0,1-6.42-3.1L504.82,390.5Zm-9.55,0V390.5l-18.33,46.44a5.26,5.26,0,0,1-6.42,3.1L422.67,425.4l-90.88-65.34Zm-169.74,86L416.89,433l24.81,43.16a5.26,5.26,0,0,1-1.59,6.95l-41.3,28.3L285.08,544.56Zm74.85,329.08L286.8,554l114.38-33.33,49.22,7.52a5.26,5.26,0,0,1,4.45,5.57l-3.63,49.87Zm8.52,4.36,51-113.09,36.62-33.86a5.25,5.25,0,0,1,7.13,0l36.61,33.86,51,113.09Zm190.85-4.36L548.9,583.63l-3.62-49.87a5.25,5.25,0,0,1,4.44-5.57l49.22-7.52L713.33,554Zm1.56-185L560,483.12a5.25,5.25,0,0,1-1.58-6.95L583.23,433l91.33-65.68,40.49,177.23Z" transform="translate(-191.23 -199.25)"/><path class="cls-2" d="M523.77,525.93H512.6l-13.17-38.17-13.17,38.17H475.09l-19.92-58.76h13.76L481,506.68,494.1,467h11l13.08,39.67,12.09-39.51h13.42Z" transform="translate(-191.23 -199.25)"/></svg>